<?xml version="1.0" encoding="utf-8"?>
<!-- Generator: Adobe Illustrator 15.0.0, SVG Export Plug-In . SVG Version: 6.00 Build 0)  -->
<!DOCTYPE svg PUBLIC "-//W3C//DTD SVG 1.1//EN" "http://www.w3.org/Graphics/SVG/1.1/DTD/svg11.dtd">
<svg version="1.1" id="图层_1" xmlns="http://www.w3.org/2000/svg" xmlns:xlink="http://www.w3.org/1999/xlink" x="0px" y="0px"
	 width="50px" height="50px" viewBox="375 375 50 50" enable-background="new 375 375 50 50" xml:space="preserve">
<g>
	<polygon points="387.1,396.7 392.2,399.1 392.2,397.9 388.4,396.2 388.4,396.2 392.2,394.5 392.2,393.4 387.1,395.8 	"/>
	<polygon points="408.3,394.5 412.2,396.2 412.2,396.2 408.3,397.9 408.3,399.1 413.4,396.7 413.4,395.7 408.3,393.4 	"/>
	<path d="M400.2,390.2c-3.4,0-6.1,2.7-6.1,6.1c0,3.4,2.7,6.1,6.1,6.1c3.4,0,6.1-2.7,6.1-6.1C406.2,392.9,403.5,390.2,400.2,390.2z
		 M402.4,392.6l0.4-0.3c0,0-0.2-0.5-0.2-0.7c0.1-0.1,0.5,0.2,0.9,0.6c-0.2,0.9-0.8,0.8-0.8,0.8S402.4,392.9,402.4,392.6z
		 M398.8,397.9c0,0.1-0.2,0.5-0.3,0.7c-0.1,0.2-0.2,0.3-0.3,0.4c-0.1,0.1-0.2,0.3-0.2,0.3l0,0.5c0,0,0.1,0.4,0.1,0.5
		c0.1,0.1-0.3,0.9-0.3,0.9c-0.2,0-0.4-0.3-0.4-0.5c-0.1-0.2-0.2-0.3-0.2-0.6c0-0.2-0.2-0.4-0.3-0.5c-0.1-0.1-0.2-0.3-0.2-0.5
		s-0.3-0.3-0.3-0.3s-0.5-0.2-0.6-0.4c-0.1-0.1-0.2-0.6-0.2-0.8c0-0.2,0.1-0.7,0.1-0.7s0.2-0.2,0.1-0.3c-0.1-0.1-0.2-0.5-0.2-0.5
		l-0.2-0.3c0,0-0.2-0.3-0.2-0.4c0-0.1,0-0.2,0-0.4c0-0.1-0.1-0.4-0.1-0.5c1-2.5,2.7-3.1,2.7-3.1l0.1,0.6c0,0-0.3,0.1-0.5,0
		c-0.2-0.1-0.2-0.1-0.2-0.1l-0.2,0.3c0,0-0.1,0.2-0.1,0.3c0,0.1,0.1,0.3,0.1,0.3s0.4,0,0.4-0.1s-0.1-0.2-0.1-0.2l-0.1-0.2
		c0,0,0.2-0.1,0.9-0.1c0.7,0.1,0.4,0.5,0.7,0.6c0.3,0.1-0.2,0.5-0.3,0.7c-0.1,0.2-0.3-0.3-0.3-0.3s0.2-0.2-0.1-0.2
		c-0.3-0.1-0.5,0.5-0.3,0.5c0.1,0,0.3,0.1,0.3,0.3c0,0.1,0,0.1-0.2,0.4c-0.1,0.3-0.4,0.5-0.4,0.5s-0.1-0.1-0.1,0.1
		c0.1,0.2,0,0.5,0,0.7c0,0.1-0.3-0.2-0.4-0.5c-0.1-0.3-0.4,0-0.5,0c-0.1,0-0.3,0-0.4-0.2c-0.1-0.1-0.5,0.3-0.7,0.4
		c-0.1,0.1-0.1,0.3,0.1,0.2c0.2-0.1,0.4,0,0.4,0.2c-0.1,0.2-0.3,0.1-0.2,0.2c0,0.1,0.2,0.3,0.3,0.5c0.1,0.2,0.6,0,0.7-0.1
		c0.2-0.1,0.6-0.2,0.7,0.1c0.1,0.2,0.6,0.3,0.8,0.4c0.2,0.1,0.6,0.1,0.8,0.3C399.2,397.4,398.8,397.8,398.8,397.9z M400,391.6
		c0,0.3-0.5,0.6-0.4,0.7c0.1,0.1,0,0.6-0.4,0.2c-0.4-0.4-0.8-0.5-0.7-0.8c0-0.1,0.4-0.1,0.4-0.2c0.6-0.5,1.5-0.4,1.6-0.3
		C400.3,391.4,400,391.3,400,391.6z M404.7,393.4c0.4,0.6,0.9,2.3,0.7,2.6c-0.1-0.1-0.2-0.1-0.2-0.1h-0.7l0.4,0.5
		c0,0,0.2,0.3,0.5,0.3c-0.2,2.3-2.1,3.7-2.1,3.7c-0.3-0.3-0.1-0.5-0.1-0.5l0.1-0.4l0-0.7c0,0,0-0.8-0.7-0.4
		c-0.8,0.2-0.5,0.2-1.2,0.3c-0.8,0.1-0.7-1.6-0.7-1.6c0-2.5,1.9-0.6,1.9-0.6c1.1,0.7,1.2-0.6,1.2-0.6l0.8-0.3l0.1-0.4l-0.1-0.5
		l-1.2-0.5c0,0-0.1,0.4,0.2,0.8c0,0-0.1,0.5-0.3,0.4l-0.7-0.3c0,0-0.2-0.1-0.6,0.1c-0.4,0.2-1,0-1,0s0-0.4,0.4-0.6l0.3-0.2
		c0,0-0.1-0.4,0-0.7s0.2,0,0.5-0.3c0.3-0.2,0.5,0.4,0.9,0.4c0.4-0.1,0.2-0.1,0.5-0.3c0.3-0.1,0.5,0.3,0.5,0.3l0.6,0.1
		C404.8,393.9,404.7,393.2,404.7,393.4z"/>
	<path d="M414.6,407.5h-29.1v-28.2h20.4v9c0,0.5,0.4,0.9,0.9,0.9h7.8V407.5z M416.3,388.3c0-0.2-0.1-0.4-0.2-0.6l-8.7-9.9l0,0
		c0-0.1-0.1-0.1-0.2-0.2l-0.1,0c-0.1,0-0.1-0.1-0.2-0.1l0,0c-0.1,0-0.1,0-0.2,0h-21.3c-1,0-1.8,0.8-1.8,1.8v41.5
		c0,1,0.8,1.8,1.8,1.8h29.1c1,0,1.8-0.8,1.8-1.8v-32.4C416.3,388.3,416.3,388.3,416.3,388.3z M386.8,417.8l-1.8-6.6h1.5l1.1,4.5
		l1.3-4.5h1.8l1.3,4.6l1.1-4.6h1.5l-1.8,6.6h-1.6l-1.5-4.9l-1.5,4.9H386.8z M395.2,411.2h2.7c0.6,0,1.1,0,1.4,0.1
		c0.4,0.1,0.8,0.3,1.1,0.6c0.3,0.3,0.5,0.6,0.7,1.1c0.2,0.4,0.2,0.9,0.2,1.6c0,0.5-0.1,1-0.2,1.4c-0.2,0.5-0.4,0.9-0.8,1.2
		c-0.3,0.2-0.6,0.4-1,0.5c-0.3,0.1-0.8,0.1-1.3,0.1h-2.8V411.2z M396.7,412.3v4.3h1.1c0.4,0,0.7,0,0.9-0.1c0.2-0.1,0.4-0.1,0.6-0.3
		c0.2-0.1,0.3-0.3,0.4-0.6c0.1-0.3,0.1-0.7,0.1-1.2c0-0.5-0.1-0.9-0.1-1.2c-0.1-0.3-0.2-0.5-0.4-0.6c-0.2-0.2-0.4-0.3-0.7-0.3
		c-0.2,0-0.6-0.1-1.2-0.1H396.7z M405.1,411.2h1.5v4.2c0,0.5-0.1,1-0.2,1.3c-0.1,0.4-0.4,0.7-0.8,0.9s-0.9,0.3-1.5,0.3
		c-0.7,0-1.3-0.2-1.7-0.5c-0.4-0.4-0.6-0.9-0.6-1.6l1.4-0.1c0,0.4,0.1,0.6,0.2,0.8c0.2,0.2,0.4,0.4,0.7,0.4c0.3,0,0.6-0.1,0.7-0.3
		c0.1-0.2,0.2-0.5,0.2-1V411.2z M414.5,417.8h-1.6l-0.6-1.5h-2.9l-0.6,1.5h-1.6l2.9-6.6h1.6L414.5,417.8z M411.8,415.2l-1-2.4
		l-1,2.4H411.8z"/>
</g>
</svg>
